<?xml version="1.0" standalone="no"?>
<!DOCTYPE svg PUBLIC "-//W3C//DTD SVG 20010904//EN"
 "http://www.w3.org/TR/2001/REC-SVG-20010904/DTD/svg10.dtd">
<svg version="1.0" xmlns="http://www.w3.org/2000/svg"
 width="600.000000pt" height="600.000000pt" viewBox="0 0 600.000000 600.000000"
 preserveAspectRatio="xMidYMid meet">
<g transform="translate(0.000000,600.000000) scale(0.100000,-0.100000)"
fill="#000000" stroke="none">
<path d="M2715 4379 c-452 -29 -906 -134 -1300 -301 -146 -62 -394 -187 -505
-255 l-65 -40 -3 -250 -2 -250 57 -12 c110 -21 211 -101 257 -200 16 -37 21
-65 21 -141 0 -88 -3 -101 -33 -162 -50 -101 -144 -171 -252 -187 l-45 -6 -3
-310 c-1 -171 0 -325 3 -342 12 -66 -31 -63 937 -61 l873 3 5 241 5 241 28 41
c15 23 46 54 69 69 l42 28 197 0 197 0 43 -30 c27 -19 54 -50 71 -84 l28 -53
0 -229 0 -229 879 0 c873 0 878 0 905 21 l26 20 0 338 0 338 -45 5 c-63 8
-150 55 -196 106 -62 71 -83 125 -87 222 -5 109 19 178 88 253 54 59 113 92
195 110 l55 11 -2 251 -3 250 -89 54 c-685 411 -1491 597 -2351 540z m235
-459 l0 -260 -69 0 c-159 0 -483 -35 -678 -72 -62 -12 -114 -20 -117 -17 -13
14 -267 432 -264 435 8 7 319 84 418 103 186 35 464 64 658 70 l52 1 0 -260z
m455 239 c158 -14 300 -36 460 -71 127 -27 305 -74 313 -83 2 -2 -251 -419
-265 -434 -2 -3 -56 5 -121 17 -216 41 -504 72 -674 72 l-68 0 0 253 c0 140 3
257 8 261 7 9 162 2 347 -15z m-1550 -418 c69 -111 125 -204 123 -206 -2 -1
-28 -10 -58 -20 -114 -36 -258 -96 -332 -138 l-76 -44 -178 178 c-98 98 -176
180 -174 182 106 87 532 290 556 264 7 -7 69 -104 139 -216z m2535 189 c56
-22 133 -56 173 -76 89 -44 277 -155 277 -163 0 -4 -80 -86 -177 -183 l-178
-177 -55 34 c-63 40 -231 112 -338 146 -40 13 -71 26 -70 30 4 10 263 428 265
429 2 0 48 -18 103 -40z m-840 -494 c479 -57 811 -157 927 -278 24 -26 25 -28
10 -51 -23 -35 -111 -91 -210 -131 -407 -169 -1233 -234 -1907 -150 -359 44
-680 137 -804 232 -74 56 -77 65 -37 106 132 136 547 243 1121 290 124 10 773
-3 900 -18z m-1958 -550 c57 -30 139 -69 183 -87 44 -18 83 -35 88 -39 8 -7
22 -86 62 -360 35 -235 34 -226 10 -222 -44 7 -315 101 -332 116 -4 3 -123
612 -123 629 0 9 2 17 4 17 3 0 51 -24 108 -54z m2928 45 c0 -11 -120 -635
-123 -637 -34 -21 -346 -128 -354 -120 -7 7 81 572 91 582 6 7 61 33 121 58
61 25 142 64 180 86 74 41 85 45 85 31z m-2395 -245 c55 -14 141 -32 190 -41
50 -8 99 -18 111 -20 19 -4 21 -17 38 -271 9 -146 15 -269 12 -272 -7 -6 -146
12 -293 39 -106 20 -112 22 -117 47 -10 44 -76 514 -76 534 0 14 5 18 18 14 9
-3 62 -16 117 -30z m1885 24 c0 -16 -80 -563 -83 -566 -13 -13 -394 -70 -404
-61 -8 9 25 530 35 537 4 4 55 14 114 24 58 10 153 30 210 45 120 33 128 34
128 21z"/>
</g>
</svg>
